<?xml version="1.0" encoding="UTF-8" standalone="no"?>
<svg
   xmlns:dc="http://purl.org/dc/elements/1.1/"
   xmlns:cc="http://creativecommons.org/ns#"
   xmlns:rdf="http://www.w3.org/1999/02/22-rdf-syntax-ns#"
   xmlns:svg="http://www.w3.org/2000/svg"
   xmlns="http://www.w3.org/2000/svg"
   xmlns:sodipodi="http://sodipodi.sourceforge.net/DTD/sodipodi-0.dtd"
   xmlns:inkscape="http://www.inkscape.org/namespaces/inkscape"
   width="163.6801"
   height="76.307541"
   version="1.1"
   viewBox="0 0 43.307237 20.189802"
   id="svg24"
   sodipodi:docname="messbeispiel2.svg"
   inkscape:version="0.92.2 (5c3e80d, 2017-08-06)">
  <metadata
     id="metadata30">
    <rdf:RDF>
      <cc:Work
         rdf:about="">
        <dc:format>image/svg+xml</dc:format>
        <dc:type
           rdf:resource="http://purl.org/dc/dcmitype/StillImage" />
        <dc:title></dc:title>
      </cc:Work>
    </rdf:RDF>
  </metadata>
  <defs
     id="defs28" />
  <sodipodi:namedview
     pagecolor="#ffffff"
     bordercolor="#666666"
     borderopacity="1"
     objecttolerance="10"
     gridtolerance="10"
     guidetolerance="10"
     inkscape:pageopacity="0"
     inkscape:pageshadow="2"
     inkscape:window-width="1920"
     inkscape:window-height="1001"
     id="namedview26"
     showgrid="true"
     inkscape:zoom="28.397855"
     inkscape:cx="47.228728"
     inkscape:cy="49.666978"
     inkscape:window-x="-9"
     inkscape:window-y="-9"
     inkscape:window-maximized="1"
     inkscape:current-layer="svg24"
     fit-margin-top="3"
     fit-margin-left="3"
     fit-margin-right="3"
     fit-margin-bottom="3"
     inkscape:snap-nodes="true">
    <inkscape:grid
       type="xygrid"
       id="grid825"
       originx="2.5299896"
       originy="-0.24394569" />
  </sodipodi:namedview>
  <path
     inkscape:connector-curvature="0"
     id="path867"
     d="m 4.6466666,7.4691 11.3771384,1.1e-6"
     style="fill:none;stroke:#000000;stroke-width:0.18520924;stroke-linecap:butt;stroke-linejoin:miter;stroke-miterlimit:4;stroke-dasharray:0.37041847, 0.18520924;stroke-dashoffset:0;stroke-opacity:1"
     sodipodi:nodetypes="cc" />
  <g
     aria-label="R1"
     style="font-style:normal;font-variant:normal;font-weight:normal;font-stretch:normal;font-size:1.3661021px;line-height:4.26906872px;font-family:Calibri;-inkscape-font-specification:Calibri;text-align:end;letter-spacing:0px;word-spacing:0px;text-anchor:end;fill:#000000;fill-opacity:1;stroke:none;stroke-width:0.17076276"
     id="text934">
    <path
       d="m 16.577216,6.6936578 q 0,0.00534 -0.002,0.00934 -0.002,0.004 -0.0087,0.00667 -0.0067,0.00267 -0.01868,0.004 -0.01201,0.00133 -0.03202,0.00133 -0.01734,0 -0.02868,-0.00133 -0.01067,-0.00133 -0.01734,-0.004 -0.0067,-0.00334 -0.01067,-0.00867 -0.0033,-0.00534 -0.006,-0.013341 l -0.07938,-0.2034478 q -0.01401,-0.034686 -0.02935,-0.063369 -0.01468,-0.02935 -0.03535,-0.050028 -0.02068,-0.021345 -0.04869,-0.032685 -0.02802,-0.012007 -0.06737,-0.012007 h -0.07671 v 0.3675401 q 0,0.00534 -0.0033,0.00934 -0.0027,0.004 -0.0093,0.00667 -0.006,0.002 -0.01734,0.00334 -0.01067,0.002 -0.02735,0.002 -0.01668,0 -0.02802,-0.002 -0.01067,-0.00133 -0.01734,-0.00334 -0.0067,-0.00267 -0.0093,-0.00667 -0.0027,-0.004 -0.0027,-0.00934 V 5.8945415 q 0,-0.026015 0.01334,-0.03602 0.01401,-0.010673 0.02935,-0.010673 h 0.183437 q 0.03269,0 0.05403,0.002 0.02201,0.00133 0.03936,0.00334 0.05003,0.00867 0.08805,0.027349 0.03869,0.018677 0.0647,0.04736 0.02602,0.028683 0.03869,0.066037 0.01334,0.036687 0.01334,0.081379 0,0.043358 -0.01201,0.078044 -0.01134,0.034019 -0.03335,0.060701 -0.02201,0.026015 -0.0527,0.045359 -0.03068,0.019344 -0.0687,0.032685 0.02135,0.00934 0.03869,0.024014 0.01734,0.014008 0.03202,0.034019 0.01534,0.020011 0.02868,0.046026 0.01334,0.026015 0.02668,0.0587 l 0.07738,0.190107 q 0.0093,0.024013 0.01201,0.034019 0.0027,0.00934 0.0027,0.014675 z M 16.404452,6.0873166 q 0,-0.050695 -0.02268,-0.085381 -0.02268,-0.035353 -0.07604,-0.050695 -0.01668,-0.00467 -0.03802,-0.00667 -0.02068,-0.002 -0.0547,-0.002 h -0.09672 v 0.2908303 h 0.112063 q 0.04536,0 0.07804,-0.010673 0.03335,-0.01134 0.05536,-0.030684 0.02201,-0.020011 0.03202,-0.046693 0.01067,-0.026682 0.01067,-0.058033 z"
       style="stroke-width:0.17076276"
       id="path819" />
    <path
       d="m 17.030504,6.9547381 q 0,0.00824 -0.0013,0.013875 -0.0013,0.00564 -0.0035,0.00911 -0.0022,0.00347 -0.0052,0.0052 -0.0026,0.0013 -0.0056,0.0013 h -0.293098 q -0.003,0 -0.0056,-0.0013 -0.0026,-0.00173 -0.0052,-0.0052 -0.0022,-0.00347 -0.0035,-0.00911 -0.0013,-0.00564 -0.0013,-0.013875 0,-0.0078 0.0013,-0.013441 0.0013,-0.00564 0.003,-0.00911 0.0022,-0.0039 0.0048,-0.00564 0.003,-0.00217 0.0065,-0.00217 h 0.117066 V 6.4977476 l -0.108394,0.064603 q -0.0082,0.00434 -0.01344,0.0052 -0.0048,8.672e-4 -0.0078,-0.00173 -0.003,-0.00303 -0.0043,-0.00954 -8.68e-4,-0.0065 -8.68e-4,-0.016476 0,-0.00737 4.34e-4,-0.012574 8.67e-4,-0.0052 0.0022,-0.00867 0.0013,-0.00347 0.0035,-0.00607 0.0026,-0.0026 0.0065,-0.0052 L 16.8458,6.424473 q 0.0017,-0.0013 0.0043,-0.00217 0.0026,-8.671e-4 0.0065,-0.00173 0.0039,-8.671e-4 0.0091,-8.671e-4 0.0052,-4.336e-4 0.01301,-4.336e-4 0.01041,0 0.01734,8.672e-4 0.0069,8.671e-4 0.01084,0.0026 0.0039,0.0013 0.0052,0.0039 0.0013,0.00217 0.0013,0.00477 v 0.4929774 h 0.101457 q 0.0035,0 0.0065,0.00217 0.003,0.00173 0.0048,0.00564 0.0022,0.00347 0.003,0.00911 0.0013,0.00564 0.0013,0.013441 z"
       style="font-size:0.88796633px;baseline-shift:sub;stroke-width:0.17076276"
       id="path821" />
  </g>
</svg>
