<?xml version="1.0" encoding="UTF-8" standalone="no"?>
<svg
   xmlns:dc="http://purl.org/dc/elements/1.1/"
   xmlns:cc="http://creativecommons.org/ns#"
   xmlns:rdf="http://www.w3.org/1999/02/22-rdf-syntax-ns#"
   xmlns:svg="http://www.w3.org/2000/svg"
   xmlns="http://www.w3.org/2000/svg"
   xmlns:sodipodi="http://sodipodi.sourceforge.net/DTD/sodipodi-0.dtd"
   xmlns:inkscape="http://www.inkscape.org/namespaces/inkscape"
   width="163.6801"
   height="76.307541"
   version="1.1"
   viewBox="0 0 43.307237 20.189802"
   id="svg24"
   sodipodi:docname="messbeispiel3.svg"
   inkscape:version="0.92.2 (5c3e80d, 2017-08-06)">
  <metadata
     id="metadata30">
    <rdf:RDF>
      <cc:Work
         rdf:about="">
        <dc:format>image/svg+xml</dc:format>
        <dc:type
           rdf:resource="http://purl.org/dc/dcmitype/StillImage" />
        <dc:title></dc:title>
      </cc:Work>
    </rdf:RDF>
  </metadata>
  <defs
     id="defs28" />
  <sodipodi:namedview
     pagecolor="#ffffff"
     bordercolor="#666666"
     borderopacity="1"
     objecttolerance="10"
     gridtolerance="10"
     guidetolerance="10"
     inkscape:pageopacity="0"
     inkscape:pageshadow="2"
     inkscape:window-width="1920"
     inkscape:window-height="1001"
     id="namedview26"
     showgrid="true"
     inkscape:zoom="7.0994636"
     inkscape:cx="25.056576"
     inkscape:cy="1.6901827"
     inkscape:window-x="-9"
     inkscape:window-y="-9"
     inkscape:window-maximized="1"
     inkscape:current-layer="svg24"
     fit-margin-top="3"
     fit-margin-left="3"
     fit-margin-right="3"
     fit-margin-bottom="3"
     inkscape:snap-nodes="true">
    <inkscape:grid
       type="xygrid"
       id="grid825"
       originx="2.5299896"
       originy="-0.24394569" />
  </sodipodi:namedview>
  <path
     inkscape:connector-curvature="0"
     id="path946"
     d="m 4.6466666,9.5857781 16.4042464,1.1e-6"
     style="fill:none;stroke:#000000;stroke-width:0.18520924;stroke-linecap:butt;stroke-linejoin:miter;stroke-miterlimit:4;stroke-dasharray:0.37041847, 0.18520924;stroke-dashoffset:0;stroke-opacity:1"
     sodipodi:nodetypes="cc" />
  <g
     aria-label="R2"
     style="font-style:normal;font-variant:normal;font-weight:normal;font-stretch:normal;font-size:1.3661021px;line-height:4.26906872px;font-family:Calibri;-inkscape-font-specification:Calibri;text-align:end;letter-spacing:0px;word-spacing:0px;text-anchor:end;fill:#000000;fill-opacity:1;stroke:none;stroke-width:0.17076276"
     id="text952">
    <path
       d="m 21.780671,9.0541653 q 0,0.00534 -0.002,0.00934 -0.002,0.004 -0.0087,0.00667 -0.0067,0.00267 -0.01868,0.004 -0.01201,0.00133 -0.03202,0.00133 -0.01734,0 -0.02868,-0.00133 -0.01067,-0.00133 -0.01734,-0.004 -0.0067,-0.00334 -0.01067,-0.00867 -0.0033,-0.00534 -0.006,-0.013341 l -0.07938,-0.2034478 q -0.01401,-0.034686 -0.02935,-0.063369 -0.01468,-0.02935 -0.03535,-0.050028 -0.02068,-0.021345 -0.04869,-0.032685 -0.02802,-0.012007 -0.06737,-0.012007 h -0.07671 v 0.3675401 q 0,0.00534 -0.0033,0.00934 -0.0027,0.004 -0.0093,0.00667 -0.006,0.002 -0.01734,0.00334 -0.01067,0.002 -0.02735,0.002 -0.01668,0 -0.02802,-0.002 -0.01067,-0.00133 -0.01734,-0.00334 -0.0067,-0.00267 -0.0093,-0.00667 -0.0027,-0.004 -0.0027,-0.00934 V 8.2550489 q 0,-0.026015 0.01334,-0.03602 0.01401,-0.010673 0.02935,-0.010673 h 0.183437 q 0.03269,0 0.05403,0.002 0.02201,0.00133 0.03936,0.00334 0.05003,0.00867 0.08805,0.027349 0.03869,0.018677 0.0647,0.04736 0.02602,0.028683 0.03869,0.066037 0.01334,0.036687 0.01334,0.081379 0,0.043358 -0.01201,0.078044 -0.01134,0.034019 -0.03335,0.060701 -0.02201,0.026015 -0.0527,0.045359 -0.03068,0.019344 -0.06871,0.032685 0.02135,0.00934 0.03869,0.024013 0.01734,0.014008 0.03202,0.034019 0.01534,0.020011 0.02868,0.046026 0.01334,0.026015 0.02668,0.0587 l 0.07738,0.1901069 q 0.0093,0.024014 0.01201,0.034019 0.0027,0.00934 0.0027,0.014675 z M 21.607907,8.4478241 q 0,-0.050695 -0.02268,-0.085381 -0.02268,-0.035353 -0.07604,-0.050695 -0.01668,-0.00467 -0.03802,-0.00667 -0.02068,-0.002 -0.0547,-0.002 h -0.09672 v 0.2908303 h 0.112063 q 0.04536,0 0.07804,-0.010673 0.03335,-0.01134 0.05536,-0.030684 0.02201,-0.020011 0.03202,-0.046693 0.01067,-0.026682 0.01067,-0.058033 z"
       style="stroke-width:0.17076276"
       id="path819" />
    <path
       d="m 22.232658,9.3126441 q 0,0.0078 -0.0013,0.013875 -8.68e-4,0.00607 -0.003,0.010406 -0.0017,0.0039 -0.0052,0.00607 -0.003,0.00173 -0.0069,0.00173 h -0.310007 q -0.0061,0 -0.01084,-0.0013 -0.0043,-0.00173 -0.0078,-0.0052 -0.003,-0.00347 -0.0048,-0.00997 -0.0013,-0.0065 -0.0013,-0.016042 0,-0.00867 4.33e-4,-0.015175 8.67e-4,-0.0065 0.003,-0.011273 0.0022,-0.0052 0.0052,-0.00997 0.0035,-0.0052 0.0087,-0.010839 L 22.007632,9.149619 q 0.03772,-0.039889 0.06027,-0.07154 0.02298,-0.031651 0.03512,-0.057666 0.01257,-0.026015 0.01648,-0.04726 0.0039,-0.021245 0.0039,-0.039889 0,-0.018644 -0.0061,-0.03512 -0.0061,-0.01691 -0.01778,-0.029483 -0.01127,-0.012574 -0.02862,-0.019944 -0.01734,-0.00737 -0.03989,-0.00737 -0.02645,0 -0.04769,0.00737 -0.02081,0.00737 -0.03685,0.016042 -0.01561,0.00867 -0.02645,0.016042 -0.01041,0.00737 -0.01561,0.00737 -0.003,0 -0.0056,-0.00173 -0.0022,-0.00173 -0.0039,-0.00564 -0.0013,-0.0039 -0.0022,-0.010406 -8.67e-4,-0.0065 -8.67e-4,-0.015609 0,-0.0065 4.33e-4,-0.011273 4.34e-4,-0.00477 0.0013,-0.00824 0.0013,-0.00347 0.003,-0.0065 0.0017,-0.00304 0.0069,-0.00737 0.0052,-0.00477 0.01778,-0.012574 0.01301,-0.0078 0.03208,-0.015175 0.01951,-0.0078 0.04249,-0.013007 0.02341,-0.0052 0.04899,-0.0052 0.04076,0 0.07111,0.011707 0.03078,0.011273 0.05073,0.031218 0.02038,0.019945 0.03035,0.046393 0.01,0.026448 0.01,0.056365 0,0.026882 -0.0048,0.053764 -0.0048,0.026448 -0.02038,0.057666 -0.01518,0.030784 -0.04423,0.068939 -0.02905,0.037721 -0.07718,0.087149 l -0.08888,0.092785 h 0.244104 q 0.0035,0 0.0065,0.00217 0.0035,0.00173 0.0056,0.00564 0.0026,0.0039 0.0035,0.00997 0.0013,0.00564 0.0013,0.013441 z"
       style="font-size:64.99999762%;baseline-shift:sub"
       id="path821" />
  </g>
</svg>
