<?xml version="1.0" encoding="UTF-8" standalone="no"?>
<!-- Created with Inkscape (http://www.inkscape.org/) -->

<svg
   xmlns:dc="http://purl.org/dc/elements/1.1/"
   xmlns:cc="http://creativecommons.org/ns#"
   xmlns:rdf="http://www.w3.org/1999/02/22-rdf-syntax-ns#"
   xmlns:svg="http://www.w3.org/2000/svg"
   xmlns="http://www.w3.org/2000/svg"
   xmlns:sodipodi="http://sodipodi.sourceforge.net/DTD/sodipodi-0.dtd"
   xmlns:inkscape="http://www.inkscape.org/namespaces/inkscape"
   width="35.71875mm"
   height="22.489584mm"
   viewBox="0 0 35.71875 22.489584"
   version="1.1"
   id="svg820"
   inkscape:version="0.92.2 (5c3e80d, 2017-08-06)"
   sodipodi:docname="tafel.svg">
  <defs
     id="defs814" />
  <sodipodi:namedview
     id="base"
     pagecolor="#ffffff"
     bordercolor="#666666"
     borderopacity="1.0"
     inkscape:pageopacity="0.0"
     inkscape:pageshadow="2"
     inkscape:zoom="3.2018679"
     inkscape:cx="66.465913"
     inkscape:cy="54.719278"
     inkscape:document-units="mm"
     inkscape:current-layer="g6"
     showgrid="false"
     fit-margin-top="0"
     fit-margin-left="0"
     fit-margin-right="0"
     fit-margin-bottom="0"
     inkscape:window-width="1920"
     inkscape:window-height="1001"
     inkscape:window-x="-9"
     inkscape:window-y="-9"
     inkscape:window-maximized="1">
    <inkscape:grid
       type="xygrid"
       id="grid1365"
       originx="-1.3229166"
       originy="-1.3229161" />
  </sodipodi:namedview>
  <metadata
     id="metadata817">
    <rdf:RDF>
      <cc:Work
         rdf:about="">
        <dc:format>image/svg+xml</dc:format>
        <dc:type
           rdf:resource="http://purl.org/dc/dcmitype/StillImage" />
        <dc:title></dc:title>
      </cc:Work>
    </rdf:RDF>
  </metadata>
  <g
     inkscape:label="Ebene 1"
     inkscape:groupmode="layer"
     id="layer1"
     transform="translate(-1.3229166,-273.1875)">
    <rect
       style="opacity:1;fill:#7e5c40;fill-opacity:1;stroke:none;stroke-width:0.26499999;stroke-linecap:round;stroke-linejoin:round;stroke-miterlimit:4;stroke-dasharray:none;stroke-dashoffset:0;stroke-opacity:1;paint-order:markers fill stroke"
       id="rect1367"
       width="35.71875"
       height="22.489584"
       x="1.3229166"
       y="273.1875" />
    <rect
       style="opacity:1;fill:#5d8b6e;fill-opacity:1;stroke:none;stroke-width:0.26499999;stroke-linecap:round;stroke-linejoin:round;stroke-miterlimit:4;stroke-dasharray:none;stroke-dashoffset:0;stroke-opacity:1;paint-order:markers fill stroke"
       id="rect1369"
       width="33.072918"
       height="19.84375"
       x="2.6458333"
       y="274.51041" />
    <g
       transform="translate(-3.46992,121.95797)"
       id="g8">
      <g
         style="stroke-width:0.084667"
         transform="translate(64.785,39.416)"
         id="g6">
        <path
           style="fill:#d1e0d7;fill-opacity:1;stroke-width:0.04944216"
           inkscape:connector-curvature="0"
           d="m -39.371652,130.24731 c -0.515375,-0.26097 -0.756169,-0.71622 -0.668874,-1.26474 0.05601,-0.35179 0.235008,-0.63137 0.527371,-0.82356 0.559309,-0.36764 1.350726,-0.23288 1.739473,0.29621 0.22005,0.29949 0.26198,0.53124 0.172645,0.95417 -0.135943,0.64356 -0.643503,0.9998 -1.325513,0.93032 -0.180788,-0.0185 -0.381059,-0.0603 -0.445096,-0.0924 z m 0.741687,-0.54711 c 0.05871,-0.0208 0.149265,-0.10745 0.201235,-0.1927 0.185729,-0.30463 0.159114,-0.64988 -0.06252,-0.81114 -0.18738,-0.13633 -0.352891,-0.14035 -0.54779,-0.0133 -0.148774,0.0969 -0.186127,0.15682 -0.240903,0.38614 -0.06023,0.25212 -0.05588,0.2836 0.06117,0.44289 0.135396,0.18429 0.379298,0.26225 0.588798,0.18816 z m 2.24524,0.97061 c -0.08743,-0.0566 -0.199238,-0.15417 -0.24845,-0.21694 l -0.08947,-0.11413 -0.07506,0.14168 c -0.07334,0.13844 -0.0823,0.14058 -0.392394,0.0932 -0.174537,-0.0267 -0.324743,-0.0665 -0.333793,-0.0886 -0.01356,-0.0329 1.055591,-3.26805 1.195814,-3.61842 0.03902,-0.0975 0.06999,-0.10185 0.383629,-0.0539 0.409571,0.0626 0.404089,-0.0145 0.06935,0.97482 -0.13121,0.38779 -0.229897,0.71687 -0.219297,0.73131 0.0106,0.0145 0.122731,-0.003 0.249182,-0.0385 0.299556,-0.0843 0.481851,-0.0538 0.728075,0.12184 0.64969,0.46333 0.463026,1.7282 -0.311463,2.11067 -0.281228,0.13888 -0.704174,0.1198 -0.956141,-0.0432 z m 0.528734,-0.56372 c 0.18655,-0.0629 0.292055,-0.22707 0.337642,-0.52522 0.03171,-0.20736 0.01897,-0.25756 -0.0997,-0.39298 -0.110556,-0.12616 -0.1694,-0.15507 -0.314029,-0.15424 -0.266503,0.002 -0.483424,0.19955 -0.526379,0.48048 -0.07179,0.46953 0.193356,0.73008 0.602494,0.59197 z m -8.501204,-0.68539 c -0.01,-0.0581 0.634002,-1.99266 0.704411,-2.11617 0.02627,-0.0461 0.128273,-0.0503 0.360443,-0.0148 0.278241,0.0425 0.325219,0.0633 0.333983,0.14717 0.0098,0.0939 0.01944,0.0944 0.250809,0.0134 0.371968,-0.1303 0.645924,-0.0529 0.843323,0.23818 0.09921,0.1463 0.108226,0.14975 0.229049,0.0878 0.06917,-0.0354 0.184462,-0.094 0.256182,-0.13011 0.0858,-0.0432 0.226913,-0.0514 0.412498,-0.0241 0.326398,0.0479 0.489293,0.17694 0.590647,0.46737 0.06428,0.18419 0.01807,0.49121 -0.170977,1.13609 -0.06096,0.20792 -0.05779,0.23434 0.03277,0.27343 0.07794,0.0337 0.09451,0.0808 0.07447,0.21185 -0.04477,0.2928 -0.121033,0.3475 -0.420662,0.30169 -0.567219,-0.0867 -0.642785,-0.26741 -0.405819,-0.97062 0.08803,-0.26126 0.154746,-0.53114 0.14826,-0.59974 -0.02458,-0.26026 -0.3844,-0.32099 -0.582414,-0.0982 -0.04941,0.0556 -0.182328,0.37948 -0.295386,0.7198 -0.113058,0.34033 -0.231088,0.64301 -0.262282,0.67263 -0.03484,0.033 -0.176906,0.0355 -0.368415,0.006 -0.37082,-0.0567 -0.365898,-0.0168 -0.09826,-0.79434 0.09824,-0.28536 0.188107,-0.57876 0.199722,-0.65201 0.02892,-0.18187 -0.142676,-0.33726 -0.335725,-0.30412 -0.23479,0.0403 -0.340627,0.19745 -0.543056,0.80634 -0.269143,0.80953 -0.249768,0.78709 -0.628935,0.72911 -0.192139,-0.0294 -0.318562,-0.071 -0.324712,-0.1067 z m 9.946143,1.52784 c -0.232266,-0.13757 -0.217022,-0.31547 0.111963,-1.30674 0.320611,-0.96606 0.294676,-0.93145 0.65667,-0.8761 0.224592,0.0343 0.300124,0.0649 0.313669,0.12697 0.01461,0.0671 -0.242581,0.92086 -0.441479,1.46555 -0.03956,0.10833 -0.027,0.14087 0.07702,0.19974 0.116231,0.0658 0.120007,0.0834 0.05827,0.27241 -0.03629,0.11114 -0.07828,0.21707 -0.09329,0.23541 -0.03735,0.0457 -0.559093,-0.0439 -0.682817,-0.11725 z m 1.319597,0.20177 c -0.125348,-0.0742 -0.181192,-0.22661 -0.152306,-0.41553 0.02096,-0.13707 0.996155,-3.08032 1.07889,-3.25623 0.03179,-0.0676 0.09677,-0.0727 0.377233,-0.0298 0.318984,0.0488 0.337732,0.0587 0.321364,0.16167 -0.0096,0.0604 -0.238434,0.76258 -0.508507,1.56027 -0.270081,0.79774 -0.482921,1.46996 -0.472968,1.49381 0.0099,0.0239 0.06965,0.0726 0.132685,0.1082 0.105309,0.0596 0.109242,0.0812 0.04859,0.26694 -0.0363,0.11114 -0.07828,0.21707 -0.09329,0.23541 -0.03745,0.0458 -0.608097,-0.0515 -0.73171,-0.12472 z m -0.605655,-2.90568 c -0.119751,-0.18232 -0.129843,-0.3015 -0.04042,-0.47734 0.07831,-0.15398 0.297195,-0.27116 0.459991,-0.24627 0.162791,0.0249 0.336663,0.20213 0.365387,0.37247 0.05393,0.31981 -0.17913,0.5563 -0.499898,0.50726 -0.148497,-0.0227 -0.224929,-0.0645 -0.285065,-0.15612 z m -6.918815,-5.49801 c -0.462836,-0.20003 -0.751338,-0.42753 -1.089693,-0.85926 -0.529801,-0.676 -0.701782,-1.31147 -0.580773,-2.14578 0.08897,-0.61365 0.27951,-1.0388 0.655561,-1.46282 0.445687,-0.50253 0.942022,-0.7767 1.739307,-0.96069 0.107179,-0.0247 0.177686,-0.11241 0.356305,-0.4431 0.733571,-1.35809 2.111525,-2.24216 3.710993,-2.38101 0.513478,-0.0446 1.453139,0.11075 1.974873,0.32644 0.481279,0.19895 1.143657,0.61798 1.128946,0.71419 -0.0094,0.0615 -0.635298,0.37182 -0.810455,0.40188 -0.04164,0.007 -0.222035,-0.0642 -0.400883,-0.15851 -0.485514,-0.25611 -1.339804,-0.41656 -1.920366,-0.3607 -1.39712,0.13448 -2.549346,1.01057 -3.082333,2.34362 l -0.174218,0.43574 -0.346042,0.0106 c -0.673135,0.0207 -1.229676,0.31011 -1.622781,0.84382 -0.186003,0.25252 -0.203701,0.30244 -0.277543,0.78283 -0.07126,0.46341 -0.0697,0.54491 0.01582,0.84134 0.180909,0.62703 0.712242,1.15381 1.350875,1.33942 0.477067,0.1386 1.138627,0.0238 1.581214,-0.27445 l 0.246707,-0.16625 0.339116,0.2685 c 0.843125,0.66756 1.872337,0.93367 2.917954,0.75443 l 0.392526,-0.0673 0.284104,0.1694 c 0.790046,0.4711 1.739861,0.51313 2.592674,0.11472 0.438183,-0.2047 0.798461,-0.51699 1.096581,-0.95068 0.38335,-0.55754 0.526548,-1.05969 0.489099,-1.71518 -0.05811,-1.01694 -0.76349,-2.02024 -1.685459,-2.39739 -0.129444,-0.053 -0.249793,-0.11366 -0.267427,-0.13487 -0.04149,-0.0498 0.365564,-0.73275 0.447436,-0.7506 0.103655,-0.0226 0.704479,0.29818 1.029788,0.5498 0.405739,0.31383 0.973244,1.08614 1.151443,1.56697 0.215246,0.58081 0.271523,1.06185 0.200573,1.71453 -0.07539,0.69353 -0.26527,1.20331 -0.649993,1.74493 -1.044429,1.47041 -3.038861,1.97236 -4.640687,1.16807 -0.202122,-0.10152 -0.24321,-0.10537 -0.640929,-0.0609 -0.345496,0.0386 -0.552839,0.0279 -1.109118,-0.0573 -0.751608,-0.11512 -1.082883,-0.2292 -1.670578,-0.57564 l -0.341112,-0.20105 -0.373056,0.12148 c -0.672679,0.21903 -1.376924,0.18784 -2.018386,-0.0894 z"
           id="path2" />
        <path
           style="fill:#d1e0d7;fill-opacity:1;stroke-width:0.04944216"
           inkscape:connector-curvature="0"
           d="m -55.29996,127.78233 c -0.141544,-0.0638 -0.364463,-0.20479 -0.495398,-0.3132 -0.241704,-0.2001 -0.559908,-0.63558 -0.543383,-0.74365 0.0087,-0.0571 0.720643,-0.41528 0.801112,-0.40298 0.02175,0.003 0.112631,0.10989 0.201955,0.23691 0.284465,0.40434 0.713115,0.59599 1.111204,0.4968 0.214396,-0.0534 0.304893,-0.1359 0.369929,-0.33712 0.07163,-0.22164 -0.04035,-0.39166 -0.614644,-0.93326 -0.69468,-0.65513 -0.845222,-0.98109 -0.745678,-1.61474 0.09788,-0.62298 0.472609,-1.01979 1.058104,-1.12056 0.349221,-0.0601 0.92744,0.028 1.235637,0.18834 0.281541,0.14642 0.650866,0.55726 0.580498,0.6458 -0.07998,0.10071 -0.658993,0.42509 -0.737384,0.41311 -0.04103,-0.006 -0.0979,-0.0503 -0.126414,-0.0976 -0.203062,-0.338 -0.746178,-0.40409 -0.955596,-0.11627 -0.208427,0.28649 -0.08666,0.52775 0.543086,1.07632 0.401874,0.35004 0.71652,0.77386 0.790983,1.06537 0.02912,0.11403 0.02836,0.33526 -0.0019,0.53634 -0.129836,0.86438 -0.779446,1.29998 -1.770388,1.18716 -0.297361,-0.0338 -0.529562,-0.0891 -0.701783,-0.16669 z m 4.104657,0.63267 c -0.673343,-0.30323 -1.039184,-0.88245 -0.995027,-1.57538 0.02106,-0.33052 1.009048,-3.30152 1.11313,-3.34734 0.07612,-0.0335 0.733752,0.06 0.837395,0.11894 0.04002,0.0228 0.06665,0.0815 0.05918,0.13034 -0.0075,0.0488 -0.238483,0.75413 -0.513363,1.56726 -0.505846,1.49635 -0.543056,1.66263 -0.434808,1.94313 0.181347,0.46989 1.031691,0.60999 1.469739,0.24212 0.222244,-0.18664 0.239821,-0.22843 0.839427,-1.99551 0.368,-1.08452 0.532519,-1.51135 0.59622,-1.54686 0.05293,-0.0295 0.237632,-0.0262 0.463644,0.008 0.24125,0.0369 0.39024,0.082 0.416387,0.12618 0.02818,0.0476 -0.01006,0.21498 -0.124202,0.54369 -0.0907,0.26122 -0.351399,1.02037 -0.579314,1.68703 -0.460201,1.34607 -0.616844,1.64485 -1.016247,1.93828 -0.270644,0.19886 -0.544185,0.29696 -0.942975,0.33823 -0.346828,0.0359 -0.896,-0.0467 -1.189073,-0.17877 z m 4.160143,0.63102 c -0.138832,-0.0627 -0.350797,-0.18882 -0.471024,-0.28024 -0.239919,-0.18245 -0.591225,-0.65755 -0.573234,-0.77521 0.01105,-0.0723 0.688187,-0.42324 0.787103,-0.40795 0.02716,0.004 0.118212,0.10751 0.202327,0.22964 0.201588,0.29262 0.457052,0.4713 0.734497,0.51372 0.337635,0.0516 0.568451,-0.0248 0.693576,-0.22976 0.09874,-0.16172 0.101408,-0.1854 0.04033,-0.35732 -0.04318,-0.12153 -0.216863,-0.32663 -0.510909,-0.60329 -0.245012,-0.23054 -0.500704,-0.49115 -0.568187,-0.57911 -0.32368,-0.42185 -0.383734,-1.03246 -0.151048,-1.53595 0.165368,-0.3578 0.535872,-0.63564 0.940703,-0.70548 0.356531,-0.0615 0.93155,0.0243 1.246639,0.18555 0.249473,0.12808 0.595676,0.48433 0.578686,0.59545 -0.01338,0.0875 -0.62641,0.47804 -0.727483,0.46349 -0.04381,-0.006 -0.104273,-0.0525 -0.134364,-0.10259 -0.07766,-0.12937 -0.319065,-0.26611 -0.525536,-0.29768 -0.228857,-0.035 -0.495481,0.14758 -0.528221,0.3617 -0.03228,0.21114 0.128167,0.44035 0.615561,0.87934 0.753469,0.67864 0.920371,1.05331 0.774545,1.7389 -0.06798,0.31964 -0.113299,0.42316 -0.261992,0.59849 -0.192867,0.22741 -0.578845,0.43814 -0.884652,0.48301 -0.313074,0.0459 -0.994632,-0.0476 -1.277276,-0.17527 z m 10.948027,-8.45558 c -0.278132,-0.10221 -0.560182,-0.33938 -0.731623,-0.6152 -0.379608,-0.61061 -0.220565,-1.46463 0.351828,-1.88924 0.346926,-0.25734 4.039731,-1.85122 4.147155,-1.78996 0.042,0.0239 0.06873,0.0934 0.05941,0.15429 -0.01451,0.0949 -1.738566,3.0449 -2.097214,3.58854 -0.366935,0.5562 -1.089763,0.78672 -1.729503,0.55156 z m 0.712002,-0.81158 c 0.210065,-0.0709 0.341448,-0.23809 0.378733,-0.48194 0.102994,-0.67361 -0.814744,-0.92852 -1.108986,-0.30809 -0.21137,0.44571 0.255144,0.95041 0.730296,0.79002 z"
           id="path4" />
      </g>
    </g>
  </g>
</svg>
