<?xml version="1.0" encoding="UTF-8" standalone="no"?>
<!-- Created with Inkscape (http://www.inkscape.org/) -->

<svg
   xmlns:dc="http://purl.org/dc/elements/1.1/"
   xmlns:cc="http://creativecommons.org/ns#"
   xmlns:rdf="http://www.w3.org/1999/02/22-rdf-syntax-ns#"
   xmlns:svg="http://www.w3.org/2000/svg"
   xmlns="http://www.w3.org/2000/svg"
   xmlns:sodipodi="http://sodipodi.sourceforge.net/DTD/sodipodi-0.dtd"
   xmlns:inkscape="http://www.inkscape.org/namespaces/inkscape"
   width="44.666164mm"
   height="55.864605mm"
   viewBox="0 0 44.666164 55.864605"
   version="1.1"
   id="svg8"
   inkscape:version="0.92.2 (5c3e80d, 2017-08-06)"
   sodipodi:docname="graph.svg">
  <defs
     id="defs2" />
  <sodipodi:namedview
     id="base"
     pagecolor="#ffffff"
     bordercolor="#666666"
     borderopacity="1.0"
     inkscape:pageopacity="0.0"
     inkscape:pageshadow="2"
     inkscape:zoom="1.9123303"
     inkscape:cx="-74.251874"
     inkscape:cy="154.92279"
     inkscape:document-units="mm"
     inkscape:current-layer="layer1"
     showgrid="true"
     inkscape:window-width="1920"
     inkscape:window-height="1001"
     inkscape:window-x="-9"
     inkscape:window-y="-9"
     inkscape:window-maximized="1"
     fit-margin-top="0"
     fit-margin-left="0"
     fit-margin-right="0"
     fit-margin-bottom="0"
     inkscape:snap-global="true"
     inkscape:snap-bbox="true">
    <inkscape:grid
       type="xygrid"
       id="grid815"
       originx="0.44951687"
       originy="-0.25828654" />
  </sodipodi:namedview>
  <metadata
     id="metadata5">
    <rdf:RDF>
      <cc:Work
         rdf:about="">
        <dc:format>image/svg+xml</dc:format>
        <dc:type
           rdf:resource="http://purl.org/dc/dcmitype/StillImage" />
        <dc:title></dc:title>
      </cc:Work>
    </rdf:RDF>
  </metadata>
  <g
     inkscape:label="Ebene 1"
     inkscape:groupmode="layer"
     id="layer1"
     transform="translate(0.44951688,-240.87711)">
    <path
       style="fill:#000000;stroke:none;stroke-width:0.26458332px;stroke-linecap:butt;stroke-linejoin:miter;stroke-opacity:1;fill-opacity:1"
       d="M 2.1166666,270.0125 2.6458333,268.95417 3.175,270.0125 Z"
       id="path819"
       inkscape:connector-curvature="0" />
    <path
       style="fill:#000000;stroke:none;stroke-width:0.26458332px;stroke-linecap:butt;stroke-linejoin:miter;stroke-opacity:1;fill-opacity:1"
       d="m 42.862499,294.88333 1.058334,-0.52916 -1.058334,-0.52917 z"
       id="path821"
       inkscape:connector-curvature="0" />
    <path
       inkscape:connector-curvature="0"
       id="path823"
       d="M 43.656249,266.57292 H 2.6458333 V 241.4375"
       style="fill:none;stroke:#000000;stroke-width:0.26458332px;stroke-linecap:butt;stroke-linejoin:miter;stroke-opacity:1" />
    <path
       inkscape:connector-curvature="0"
       id="path825"
       d="M 2.1166666,242.23125 2.6458333,241.17292 3.175,242.23125 Z"
       style="fill:#000000;stroke:none;stroke-width:0.26458332px;stroke-linecap:butt;stroke-linejoin:miter;stroke-opacity:1;fill-opacity:1" />
    <path
       inkscape:connector-curvature="0"
       id="path827"
       d="m 42.862499,267.10208 1.058334,-0.52916 -1.058334,-0.52917 z"
       style="fill:#000000;stroke:none;stroke-width:0.26458332px;stroke-linecap:butt;stroke-linejoin:miter;stroke-opacity:1;fill-opacity:1" />
    <text
       xml:space="preserve"
       style="font-style:normal;font-variant:normal;font-weight:normal;font-stretch:normal;font-size:2.11666656px;line-height:6.61458302px;font-family:Calibri;-inkscape-font-specification:Calibri;text-align:end;letter-spacing:0px;word-spacing:0px;text-anchor:end;fill:#000000;fill-opacity:1;stroke:none;stroke-width:0.26458332"
       x="-278.74948"
       y="0.88786912"
       id="text831"
       transform="rotate(-90)"><tspan
         sodipodi:role="line"
         id="tspan829"
         x="-278.74948"
         y="0.88786912"
         style="stroke-width:0.26458332">temperature</tspan></text>
    <text
       transform="rotate(-90)"
       id="text835"
       y="1.2444365"
       x="-246.91057"
       style="font-style:normal;font-variant:normal;font-weight:normal;font-stretch:normal;font-size:2.11666656px;line-height:6.61458302px;font-family:Calibri;-inkscape-font-specification:Calibri;text-align:end;letter-spacing:0px;word-spacing:0px;text-anchor:end;fill:#000000;fill-opacity:1;stroke:none;stroke-width:0.26458332"
       xml:space="preserve"
       inkscape:transform-center-x="-0.088935574"
       inkscape:transform-center-y="27.836835"><tspan
         style="stroke-width:0.26458332"
         y="1.2444365"
         x="-246.91057"
         id="tspan833"
         sodipodi:role="line">sensor resistance</tspan></text>
    <text
       xml:space="preserve"
       style="font-style:normal;font-variant:normal;font-weight:normal;font-stretch:normal;font-size:2.11666656px;line-height:6.61458302px;font-family:Calibri;-inkscape-font-specification:Calibri;text-align:end;letter-spacing:0px;word-spacing:0px;text-anchor:end;fill:#000000;fill-opacity:1;stroke:none;stroke-width:0.26458332"
       x="42.133232"
       y="269.241"
       id="text839"><tspan
         sodipodi:role="line"
         id="tspan837"
         x="42.133232"
         y="269.241"
         style="stroke-width:0.26458332">time</tspan></text>
    <text
       id="text843"
       y="296.72208"
       x="42.133232"
       style="font-style:normal;font-variant:normal;font-weight:normal;font-stretch:normal;font-size:2.11666656px;line-height:6.61458302px;font-family:Calibri;-inkscape-font-specification:Calibri;text-align:end;letter-spacing:0px;word-spacing:0px;text-anchor:end;fill:#000000;fill-opacity:1;stroke:none;stroke-width:0.26458332"
       xml:space="preserve"><tspan
         style="stroke-width:0.26458332"
         y="296.72208"
         x="42.133232"
         id="tspan841"
         sodipodi:role="line">time</tspan></text>
    <path
       style="fill:none;stroke:#909090;stroke-width:0.26499999;stroke-linecap:butt;stroke-linejoin:miter;stroke-miterlimit:4;stroke-dasharray:0.53, 0.265;stroke-dashoffset:0;stroke-opacity:1"
       d="m 18.520833,281.125 v 6.61458"
       id="path849"
       inkscape:connector-curvature="0" />
    <path
       style="fill:none;stroke:#3064a4;stroke-width:0.40000001;stroke-linecap:butt;stroke-linejoin:miter;stroke-miterlimit:4;stroke-dasharray:none;stroke-opacity:1"
       d="M 2.6458333,281.125 H 18.520833"
       id="path845"
       inkscape:connector-curvature="0"
       sodipodi:nodetypes="cc" />
    <path
       style="fill:none;stroke:#3064a4;stroke-width:0.40000001;stroke-linecap:butt;stroke-linejoin:miter;stroke-miterlimit:4;stroke-dasharray:none;stroke-opacity:1"
       d="M 18.520833,287.73958 H 43.656249"
       id="path847"
       inkscape:connector-curvature="0"
       sodipodi:nodetypes="cc" />
    <path
       style="fill:none;stroke:#000000;stroke-width:0.26458332px;stroke-linecap:butt;stroke-linejoin:miter;stroke-opacity:1"
       d="M 43.656249,294.35417 H 2.6458333 v -25.13542"
       id="path817"
       inkscape:connector-curvature="0" />
    <path
       style="fill:none;stroke:#ae00ac;stroke-width:0.40000001;stroke-linecap:butt;stroke-linejoin:miter;stroke-miterlimit:4;stroke-dasharray:none;stroke-opacity:1"
       d="M 2.6458336,262.60417 H 18.13872 l 0.382113,-9.26042 c 2.645834,3.96875 1.322917,6.61458 25.135417,6.61458"
       id="path851"
       inkscape:connector-curvature="0"
       sodipodi:nodetypes="cccc" />
    <path
       inkscape:connector-curvature="0"
       id="path853"
       d="M 2.6458336,258.63542 H 17.991667 l 0.529166,-14.55209 c 0,0 7.9375,9.26042 25.135417,11.90625"
       style="fill:none;stroke:#2ac800;stroke-width:0.40000001;stroke-linecap:butt;stroke-linejoin:miter;stroke-miterlimit:4;stroke-dasharray:none;stroke-opacity:1"
       sodipodi:nodetypes="cccc" />
    <g
       aria-label="c1"
       style="font-style:normal;font-variant:normal;font-weight:normal;font-stretch:normal;font-size:2.11666656px;line-height:6.61458302px;font-family:Calibri;-inkscape-font-specification:Calibri;text-align:end;letter-spacing:0px;word-spacing:0px;text-anchor:end;fill:#2ac800;fill-opacity:1;stroke:none;stroke-width:0.26458332"
       id="text863">
      <path
         d="m 41.249492,253.3206 q 0,0.0186 -0.0041,0.0382 -0.0031,0.0196 -0.01034,0.0372 -0.0072,0.0165 -0.01757,0.0279 -0.0093,0.0114 -0.0217,0.0114 -0.01447,0 -0.02997,-0.0145 -0.0155,-0.0155 -0.04134,-0.0341 -0.02481,-0.0186 -0.06408,-0.0341 -0.03824,-0.0155 -0.09819,-0.0155 -0.06615,0 -0.117823,0.0279 -0.05064,0.0269 -0.08888,0.0713 -0.03721,0.0434 -0.06201,0.0992 -0.02481,0.0558 -0.04031,0.11265 -0.0155,0.0568 -0.02274,0.11059 -0.0062,0.0527 -0.0062,0.092 0,0.10645 0.04651,0.16123 0.04651,0.0548 0.138493,0.0548 0.06718,0 0.114722,-0.0165 0.04858,-0.0165 0.08165,-0.0372 0.03411,-0.0217 0.05581,-0.0382 0.0217,-0.0165 0.03824,-0.0165 0.0083,0 0.0124,0.008 0.0052,0.007 0.0052,0.0217 0,0.0124 -0.0021,0.03 -0.0021,0.0165 -0.0072,0.0351 -0.0041,0.0176 -0.01137,0.0331 -0.0062,0.0155 -0.0186,0.0289 -0.0124,0.0124 -0.04341,0.031 -0.03101,0.0186 -0.07235,0.0341 -0.04031,0.0145 -0.08785,0.0238 -0.04754,0.0103 -0.09819,0.0103 -0.166398,0 -0.24908,-0.0847 -0.08165,-0.0848 -0.08165,-0.25218 0,-0.0631 0.01034,-0.13746 0.01137,-0.0754 0.03721,-0.1509 0.02584,-0.0765 0.06614,-0.14779 0.04031,-0.0713 0.09922,-0.12609 0.05891,-0.0558 0.136426,-0.0889 0.07752,-0.0331 0.177767,-0.0331 0.04134,0 0.07958,0.007 0.03824,0.006 0.07131,0.0176 0.03411,0.0114 0.06098,0.0289 0.02791,0.0165 0.04237,0.03 0.0155,0.0134 0.0186,0.0227 0.0041,0.009 0.0041,0.0207 z"
         style="font-style:italic;font-variant:normal;font-weight:normal;font-stretch:normal;font-family:Calibri;-inkscape-font-specification:'Calibri Italic';fill:#2ac800;fill-opacity:1"
         id="path854" />
      <path
         d="m 41.870178,254.57261 q 0,0.0128 -0.002,0.0215 -0.002,0.009 -0.0054,0.0141 -0.0034,0.005 -0.0081,0.008 -0.004,0.002 -0.0087,0.002 h -0.454132 q -0.0047,0 -0.0087,-0.002 -0.004,-0.003 -0.0081,-0.008 -0.0034,-0.005 -0.0054,-0.0141 -0.002,-0.009 -0.002,-0.0215 0,-0.0121 0.002,-0.0208 0.002,-0.009 0.0047,-0.0141 0.0034,-0.006 0.0074,-0.009 0.0047,-0.003 0.01008,-0.003 h 0.181384 v -0.66105 l -0.167948,0.1001 q -0.01276,0.007 -0.02083,0.008 -0.0074,0.001 -0.01209,-0.003 -0.0047,-0.005 -0.0067,-0.0148 -0.0013,-0.0101 -0.0013,-0.0255 0,-0.0114 6.72e-4,-0.0195 0.0013,-0.008 0.0034,-0.0134 0.002,-0.005 0.0054,-0.009 0.004,-0.004 0.01008,-0.008 l 0.200194,-0.12831 q 0.0027,-0.002 0.0067,-0.003 0.004,-0.001 0.01008,-0.003 0.006,-0.001 0.01411,-0.001 0.0081,-6.7e-4 0.02015,-6.7e-4 0.01612,0 0.02687,0.001 0.01075,0.001 0.0168,0.004 0.006,0.002 0.0081,0.006 0.002,0.003 0.002,0.007 v 0.76383 h 0.157199 q 0.0054,0 0.01008,0.003 0.0047,0.003 0.0074,0.009 0.0034,0.005 0.0047,0.0141 0.002,0.009 0.002,0.0208 z"
         style="font-size:64.99999762%;baseline-shift:sub;fill:#2ac800;fill-opacity:1"
         id="path856" />
    </g>
    <g
       aria-label="c2"
       style="font-style:normal;font-variant:normal;font-weight:normal;font-stretch:normal;font-size:2.11666656px;line-height:6.61458302px;font-family:Calibri;-inkscape-font-specification:Calibri;text-align:end;letter-spacing:0px;word-spacing:0px;text-anchor:end;fill:#ae00ac;fill-opacity:1;stroke:none;stroke-width:0.26458332"
       id="text875"
       transform="translate(-7.4775873,-2.9597258)">
      <path
         d="m 41.338428,260.79116 q 0,0.0186 -0.0041,0.0382 -0.0031,0.0196 -0.01033,0.0372 -0.0072,0.0165 -0.01757,0.0279 -0.0093,0.0114 -0.0217,0.0114 -0.01447,0 -0.02997,-0.0145 -0.0155,-0.0155 -0.04134,-0.0341 -0.0248,-0.0186 -0.06408,-0.0341 -0.03824,-0.0155 -0.09819,-0.0155 -0.06614,0 -0.117822,0.0279 -0.05064,0.0269 -0.08888,0.0713 -0.03721,0.0434 -0.06201,0.0992 -0.02481,0.0558 -0.04031,0.11265 -0.0155,0.0568 -0.02274,0.11059 -0.0062,0.0527 -0.0062,0.092 0,0.10646 0.04651,0.16123 0.04651,0.0548 0.138493,0.0548 0.06718,0 0.114722,-0.0165 0.04858,-0.0165 0.08165,-0.0372 0.03411,-0.0217 0.05581,-0.0382 0.0217,-0.0165 0.03824,-0.0165 0.0083,0 0.0124,0.008 0.0052,0.007 0.0052,0.0217 0,0.0124 -0.0021,0.03 -0.0021,0.0165 -0.0072,0.0351 -0.0041,0.0176 -0.01137,0.0331 -0.0062,0.0155 -0.0186,0.0289 -0.0124,0.0124 -0.04341,0.031 -0.03101,0.0186 -0.07235,0.0341 -0.04031,0.0145 -0.08785,0.0238 -0.04754,0.0103 -0.09819,0.0103 -0.166398,0 -0.24908,-0.0847 -0.08165,-0.0847 -0.08165,-0.25219 0,-0.063 0.01033,-0.13746 0.01137,-0.0754 0.03721,-0.15089 0.02584,-0.0765 0.06615,-0.14779 0.04031,-0.0713 0.09922,-0.1261 0.05891,-0.0558 0.136426,-0.0889 0.07751,-0.0331 0.177767,-0.0331 0.04134,0 0.07958,0.007 0.03824,0.006 0.07131,0.0176 0.03411,0.0114 0.06098,0.0289 0.0279,0.0165 0.04237,0.03 0.0155,0.0134 0.0186,0.0227 0.0041,0.009 0.0041,0.0207 z"
         style="font-style:italic;font-variant:normal;font-weight:normal;font-stretch:normal;font-family:Calibri;-inkscape-font-specification:'Calibri Italic';fill:#ae00ac;fill-opacity:1"
         id="path848"
         inkscape:connector-curvature="0" />
      <path
         d="m 41.957098,262.03915 q 0,0.0121 -0.002,0.0215 -0.0013,0.009 -0.0047,0.0161 -0.0027,0.006 -0.0081,0.009 -0.0047,0.003 -0.01075,0.003 h -0.480332 q -0.0094,0 -0.01679,-0.002 -0.0067,-0.003 -0.01209,-0.008 -0.0047,-0.005 -0.0074,-0.0154 -0.002,-0.0101 -0.002,-0.0249 0,-0.0134 6.72e-4,-0.0235 0.0013,-0.0101 0.0047,-0.0175 0.0034,-0.008 0.0081,-0.0154 0.0054,-0.008 0.01344,-0.0168 l 0.168621,-0.1787 q 0.05845,-0.0618 0.09338,-0.11084 0.03561,-0.049 0.05441,-0.0893 0.01948,-0.0403 0.02553,-0.0732 0.006,-0.0329 0.006,-0.0618 0,-0.0289 -0.0094,-0.0544 -0.0094,-0.0262 -0.02754,-0.0457 -0.01747,-0.0195 -0.04434,-0.0309 -0.02687,-0.0114 -0.0618,-0.0114 -0.04098,0 -0.0739,0.0114 -0.03225,0.0114 -0.0571,0.0249 -0.02418,0.0134 -0.04098,0.0249 -0.01612,0.0114 -0.02418,0.0114 -0.0047,0 -0.0087,-0.003 -0.0034,-0.003 -0.006,-0.009 -0.002,-0.006 -0.0034,-0.0161 -0.0013,-0.0101 -0.0013,-0.0242 0,-0.0101 6.72e-4,-0.0175 6.71e-4,-0.007 0.002,-0.0128 0.002,-0.005 0.0047,-0.0101 0.0027,-0.005 0.01075,-0.0114 0.0081,-0.007 0.02754,-0.0195 0.02015,-0.0121 0.04971,-0.0235 0.03023,-0.0121 0.06584,-0.0202 0.03628,-0.008 0.07591,-0.008 0.06315,0 0.110174,0.0181 0.0477,0.0175 0.0786,0.0484 0.03157,0.0309 0.04703,0.0719 0.01545,0.041 0.01545,0.0873 0,0.0417 -0.0074,0.0833 -0.0074,0.041 -0.03157,0.0893 -0.02351,0.0477 -0.06852,0.10681 -0.04501,0.0584 -0.11958,0.13503 l -0.137717,0.14377 h 0.37822 q 0.0054,0 0.01008,0.003 0.0054,0.003 0.0087,0.009 0.004,0.006 0.0054,0.0155 0.002,0.009 0.002,0.0208 z"
         style="font-size:64.99999762%;baseline-shift:sub;fill:#ae00ac;fill-opacity:1"
         id="path850"
         inkscape:connector-curvature="0" />
    </g>
    <path
       style="fill:none;stroke:#000000;stroke-width:0.26458332px;stroke-linecap:butt;stroke-linejoin:miter;stroke-opacity:1"
       d="m 19.121148,284.32667 4.110223,-3.53713"
       id="path877"
       inkscape:connector-curvature="0"
       sodipodi:nodetypes="cc" />
    <text
       xml:space="preserve"
       style="font-style:normal;font-variant:normal;font-weight:normal;font-stretch:normal;font-size:2.11666656px;line-height:2.01083326px;font-family:Calibri;-inkscape-font-specification:Calibri;text-align:center;letter-spacing:0px;word-spacing:0px;text-anchor:middle;fill:#000000;fill-opacity:1;stroke:none;stroke-width:0.26458332"
       x="29.141153"
       y="279.20297"
       id="text881"><tspan
         sodipodi:role="line"
         id="tspan879"
         x="29.141153"
         y="279.20297"
         style="line-height:2.01083326px;text-align:center;text-anchor:middle;stroke-width:0.26458332">temperature jump</tspan><tspan
         sodipodi:role="line"
         x="29.141153"
         y="281.21381"
         style="line-height:2.01083326px;text-align:center;text-anchor:middle;stroke-width:0.26458332"
         id="tspan883">down</tspan></text>
  </g>
</svg>
